<svg xmlns="http://www.w3.org/2000/svg" viewBox="0 0 448 512">
  <path fill="black" d="M400 0H48C21.5 0 0 21.5 0 48v416c0 26.5 21.5 48 48 48h352c26.5
    0 48-21.5 48-48V48c0-26.5-21.5-48-48-48zM96 64h256v64H96V64zm256 384H96V192h256v256zM144
    240c-13.3 0-24 10.7-24 24s10.7 24 24 24 24-10.7 24-24-10.7-24-24-24zm80 0c-13.3
    0-24 10.7-24 24s10.7 24 24 24 24-10.7 24-24-10.7-24-24-24zm80 0c-13.3
    0-24 10.7-24 24s10.7 24 24 24 24-10.7 24-24-10.7-24-24-24zM144 336c-13.3
    0-24 10.7-24 24s10.7 24 24 24 24-10.7 24-24-10.7-24-24-24zm80 0c-13.3
    0-24 10.7-24 24s10.7 24 24 24 24-10.7 24-24-10.7-24-24-24z"/>
</svg>